<svg width="24" height="24" viewBox="0 0 24 24" fill="none" xmlns="http://www.w3.org/2000/svg">
<path d="M19.2693 8.62161C19.2693 4.50641 16.0391 1.17041 12.0546 1.17041C8.07 1.17041 4.83984 4.50646 4.83984 8.62161C4.83984 10.4826 5.50045 12.1841 6.59259 13.4899H6.59255L8.17064 16.3505C8.58281 17.1136 8.73581 17.6064 9.42652 17.6064H14.5722C15.2629 17.6064 15.4661 17.0875 15.828 16.3505L17.5166 13.4899H17.5165C18.6086 12.1841 19.2693 10.4826 19.2693 8.62161Z" fill="#FFE46A"/>
<path d="M5.28923 9.52907C5.28923 5.27652 8.49445 1.76183 12.6555 1.19849C12.4479 1.17993 12.2395 1.17056 12.0311 1.17041C8.04656 1.17041 4.81641 4.50646 4.81641 8.62161C4.81641 9.97583 5.16652 11.2454 5.77791 12.3397C5.4615 11.4608 5.28923 10.5148 5.28923 9.52907Z" fill="#FFF0B7"/>
<path d="M19.2693 8.63725C19.2693 7.16327 18.8548 5.78936 18.1397 4.63281C18.2928 5.23676 18.3702 5.85739 18.3702 6.48044C18.3702 11.3767 13.6294 15.3643 7.70703 15.5258L8.17063 16.3662C8.5828 17.1293 8.7358 17.6221 9.4265 17.6221H14.5722C15.2629 17.6221 15.4661 17.1032 15.828 16.3662L17.5166 13.5055H17.5165C18.6086 12.1997 19.2693 10.4982 19.2693 8.63725Z" fill="#FFDA00"/>
<path d="M15.0888 9.90005C15.0958 9.89391 15.1027 9.88828 15.1097 9.88153C15.2404 9.75652 15.348 9.55711 15.2579 9.37214C14.8886 8.61389 13.7593 8.37333 12.9365 8.62444C12.8948 8.63714 12.8544 8.65097 12.8152 8.66592C12.3669 8.40422 11.8104 8.34131 11.3151 8.49863C11.2565 8.51719 11.1989 8.53901 11.1427 8.56397C10.8715 8.40553 10.5543 8.3265 10.2383 8.35706C9.5768 8.42105 9.00197 8.95753 8.88806 9.61106L8.83594 9.64331C9.28673 10.3718 10.4733 12.4591 10.5493 13.3574C10.6452 14.4905 10.5494 17.5664 10.5484 17.5973L11.1106 17.6151C11.1147 17.4875 11.2084 14.4755 11.1097 13.3099C11.0658 12.7902 10.7478 11.9619 10.1646 10.848C9.89236 10.3281 9.62808 9.87159 9.46809 9.60225C9.57872 9.24384 9.91856 8.95313 10.2924 8.91698C10.4063 8.90597 10.5218 8.91872 10.6323 8.95116C10.5907 9.00442 10.5543 9.06152 10.5236 9.12169C10.3339 9.49364 10.4131 9.96066 10.7079 10.2081C10.8825 10.3545 11.1362 10.4085 11.3701 10.3487C11.588 10.293 11.7563 10.1498 11.832 9.95592C11.9001 9.78164 11.8943 9.58045 11.8148 9.35798C11.7689 9.23 11.7049 9.10918 11.625 8.99916C11.8373 8.95831 12.0564 8.97029 12.263 9.03403C12.1826 9.12661 12.1211 9.22964 12.0806 9.34134C11.9942 9.58045 12.0324 9.86461 12.1804 10.083C12.3079 10.2713 12.5017 10.3831 12.7123 10.3901C12.7193 10.3903 12.7264 10.3905 12.7334 10.3905C12.9179 10.3905 13.0929 10.3111 13.2285 10.1656C13.3877 9.99464 13.4688 9.75731 13.4452 9.53072C13.4303 9.38667 13.3791 9.24577 13.2966 9.11508C13.8701 9.01088 14.4312 9.20466 14.6739 9.4988C14.5274 9.74255 14.2266 10.254 13.9155 10.8481C13.3324 11.962 13.0143 12.7904 12.9704 13.31C12.8717 14.4756 12.9655 17.4876 12.9695 17.6152L13.5317 17.5974C13.5307 17.5665 13.4349 14.4908 13.5308 13.3575C13.5992 12.5488 14.5673 10.7772 15.0888 9.90005ZM11.308 9.75141C11.2949 9.78497 11.2456 9.79992 11.2308 9.80372C11.1722 9.81867 11.1059 9.80775 11.0694 9.77723C10.975 9.69797 10.9545 9.51478 11.0246 9.3773C11.0476 9.33302 11.0768 9.29226 11.1113 9.25622C11.1868 9.34191 11.2469 9.44025 11.2851 9.54722C11.3162 9.63441 11.3246 9.70889 11.308 9.75141ZM12.8169 9.78206C12.8004 9.79964 12.767 9.82856 12.7307 9.82781C12.6917 9.82655 12.6609 9.78942 12.6459 9.76739C12.5994 9.69863 12.5844 9.60206 12.6096 9.53259C12.6385 9.45244 12.6945 9.38686 12.7597 9.33408C12.8324 9.41616 12.8769 9.50442 12.8857 9.5888C12.8925 9.65306 12.8647 9.73069 12.8169 9.78206Z" fill="#FAAF63"/>
<path d="M14.8102 18.8765H9.27734C8.96797 18.8765 8.71484 19.1296 8.71484 19.439V19.7651C8.71484 20.0744 8.96797 20.3276 9.27734 20.3276H11.0643C10.5315 20.5258 9.96889 20.9972 9.96889 21.5438V21.7632C10.3965 22.2438 10.7948 23.0795 11.5534 23.0795H12.5795C13.177 23.0795 13.6015 22.4344 14.1186 21.7632V21.5438C14.1186 20.9972 13.5819 20.5258 13.0617 20.3276H14.8102C15.1196 20.3276 15.3727 20.0744 15.3727 19.7651V19.439C15.3727 19.1296 15.1196 18.8765 14.8102 18.8765Z" fill="#6B83A5"/>
<path d="M15.2062 18.8764H8.87891C8.56953 18.8764 8.31641 18.6233 8.31641 18.3139V17.9878C8.31641 17.6784 8.56953 17.4253 8.87891 17.4253H15.2062C15.5156 17.4253 15.7687 17.6784 15.7687 17.9878V18.3139C15.7687 18.6233 15.5156 18.8764 15.2062 18.8764ZM14.8778 21.2162V20.8901C14.8778 20.5807 14.6247 20.3276 14.3153 20.3276H9.76986C9.46048 20.3276 9.20736 20.5807 9.20736 20.8901V21.2162C9.20736 21.5255 9.46048 21.7787 9.76986 21.7787H14.3153C14.6247 21.7787 14.8778 21.5255 14.8778 21.2162Z" fill="#ABBDDB"/>
</svg>
