<svg width="24" height="24" viewBox="0 0 24 24" fill="none" xmlns="http://www.w3.org/2000/svg">
<mask id="mask0_2049_1135" style="mask-type:alpha" maskUnits="userSpaceOnUse" x="0" y="0" width="24" height="24">
<rect width="24" height="24" fill="#D9D9D9"/>
</mask>
<g mask="url(#mask0_2049_1135)">
<path d="M11.9984 11.9996C10.8984 11.9996 9.95678 11.608 9.17344 10.8246C8.39011 10.0413 7.99844 9.09963 7.99844 7.99963C7.99844 6.89963 8.39011 5.95797 9.17344 5.17463C9.95678 4.3913 10.8984 3.99963 11.9984 3.99963C13.0984 3.99963 14.0401 4.3913 14.8234 5.17463C15.6068 5.95797 15.9984 6.89963 15.9984 7.99963C15.9984 9.09963 15.6068 10.0413 14.8234 10.8246C14.0401 11.608 13.0984 11.9996 11.9984 11.9996ZM3.99844 19.9996V17.1996C3.99844 16.633 4.14428 16.1121 4.43594 15.6371C4.72761 15.1621 5.11511 14.7996 5.59844 14.5496C6.63178 14.033 7.68178 13.6455 8.74844 13.3871C9.81511 13.1288 10.8984 12.9996 11.9984 12.9996C13.0984 12.9996 14.1818 13.1288 15.2484 13.3871C16.3151 13.6455 17.3651 14.033 18.3984 14.5496C18.8818 14.7996 19.2693 15.1621 19.5609 15.6371C19.8526 16.1121 19.9984 16.633 19.9984 17.1996V19.9996H3.99844ZM5.99844 17.9996H17.9984V17.1996C17.9984 17.0163 17.9526 16.8496 17.8609 16.6996C17.7693 16.5496 17.6484 16.433 17.4984 16.3496C16.5984 15.8996 15.6901 15.5621 14.7734 15.3371C13.8568 15.1121 12.9318 14.9996 11.9984 14.9996C11.0651 14.9996 10.1401 15.1121 9.22344 15.3371C8.30678 15.5621 7.39844 15.8996 6.49844 16.3496C6.34844 16.433 6.22761 16.5496 6.13594 16.6996C6.04428 16.8496 5.99844 17.0163 5.99844 17.1996V17.9996ZM11.9984 9.99963C12.5484 9.99963 13.0193 9.8038 13.4109 9.41213C13.8026 9.02047 13.9984 8.54963 13.9984 7.99963C13.9984 7.44963 13.8026 6.9788 13.4109 6.58713C13.0193 6.19547 12.5484 5.99963 11.9984 5.99963C11.4484 5.99963 10.9776 6.19547 10.5859 6.58713C10.1943 6.9788 9.99844 7.44963 9.99844 7.99963C9.99844 8.54963 10.1943 9.02047 10.5859 9.41213C10.9776 9.8038 11.4484 9.99963 11.9984 9.99963Z" fill="#1C1B1F"/>
</g>
</svg>
