<svg width="24" height="24" viewBox="0 0 24 24" fill="none" xmlns="http://www.w3.org/2000/svg">
<mask id="mask0_2049_1101" style="mask-type:alpha" maskUnits="userSpaceOnUse" x="0" y="0" width="24" height="24">
<rect width="24" height="24" fill="#D9D9D9"/>
</mask>
<g mask="url(#mask0_2049_1101)">
<path d="M9.50625 16.4993L16.5062 11.9993L9.50625 7.49927V16.4993ZM12.0062 21.9993C10.6229 21.9993 9.32291 21.7368 8.10625 21.2118C6.88958 20.6868 5.83125 19.9743 4.93125 19.0743C4.03125 18.1743 3.31875 17.1159 2.79375 15.8993C2.26875 14.6826 2.00625 13.3826 2.00625 11.9993C2.00625 10.6159 2.26875 9.31593 2.79375 8.09927C3.31875 6.8826 4.03125 5.82427 4.93125 4.92427C5.83125 4.02427 6.88958 3.31177 8.10625 2.78677C9.32291 2.26177 10.6229 1.99927 12.0062 1.99927C13.3896 1.99927 14.6896 2.26177 15.9062 2.78677C17.1229 3.31177 18.1812 4.02427 19.0812 4.92427C19.9812 5.82427 20.6937 6.8826 21.2187 8.09927C21.7437 9.31593 22.0062 10.6159 22.0062 11.9993C22.0062 13.3826 21.7437 14.6826 21.2187 15.8993C20.6937 17.1159 19.9812 18.1743 19.0812 19.0743C18.1812 19.9743 17.1229 20.6868 15.9062 21.2118C14.6896 21.7368 13.3896 21.9993 12.0062 21.9993ZM12.0062 19.9993C14.2396 19.9993 16.1312 19.2243 17.6812 17.6743C19.2312 16.1243 20.0062 14.2326 20.0062 11.9993C20.0062 9.76593 19.2312 7.87427 17.6812 6.32427C16.1312 4.77427 14.2396 3.99927 12.0062 3.99927C9.77291 3.99927 7.88125 4.77427 6.33125 6.32427C4.78125 7.87427 4.00625 9.76593 4.00625 11.9993C4.00625 14.2326 4.78125 16.1243 6.33125 17.6743C7.88125 19.2243 9.77291 19.9993 12.0062 19.9993Z" fill="#1C1B1F"/>
</g>
</svg>
