<svg width="24" height="24" viewBox="0 0 24 24" fill="none" xmlns="http://www.w3.org/2000/svg">
<path fill-rule="evenodd" clip-rule="evenodd" d="M20.16 12.1932C20.16 11.5905 20.1059 11.011 20.0054 10.4546H12V13.7425H16.5745C16.3775 14.8051 15.7786 15.7053 14.8784 16.308V18.4407H17.6254C19.2327 16.961 20.16 14.7819 20.16 12.1932Z" fill="#6818A5"/>
<path fill-rule="evenodd" clip-rule="evenodd" d="M12 20.5C14.295 20.5 16.2191 19.7389 17.6254 18.4407L14.8784 16.3079C14.1173 16.8179 13.1436 17.1193 12 17.1193C9.78611 17.1193 7.91224 15.6241 7.24383 13.615H4.40405V15.8173C5.80269 18.5952 8.67724 20.5 12 20.5Z" fill="#34A853"/>
<path fill-rule="evenodd" clip-rule="evenodd" d="M7.24384 13.615C7.07384 13.105 6.97725 12.5602 6.97725 12C6.97725 11.4398 7.07384 10.895 7.24384 10.385V8.18274H4.40406C3.82838 9.33024 3.49997 10.6284 3.49997 12C3.49997 13.3716 3.82838 14.6698 4.40406 15.8173L7.24384 13.615Z" fill="#FBBC05"/>
<path fill-rule="evenodd" clip-rule="evenodd" d="M12 6.88069C13.2479 6.88069 14.3684 7.30955 15.2493 8.15183L17.6873 5.71387C16.2152 4.34227 14.2911 3.5 12 3.5C8.67724 3.5 5.80269 5.40478 4.40405 8.18273L7.24383 10.385C7.91224 8.37592 9.78611 6.88069 12 6.88069Z" fill="#EA4335"/>
</svg>
