<svg width="20" height="20" viewBox="0 0 20 20" fill="none" xmlns="http://www.w3.org/2000/svg">
<rect x="0.5" y="0.5" width="19" height="19" rx="9.5" stroke="#1C1B1F"/>
<path d="M8.70801 9.27832H9.69238C10.0752 9.27832 10.3919 9.21224 10.6426 9.08008C10.8978 8.94792 11.0869 8.76562 11.21 8.5332C11.333 8.30078 11.3945 8.03418 11.3945 7.7334C11.3945 7.41895 11.3376 7.15007 11.2236 6.92676C11.1143 6.69889 10.9456 6.52344 10.7178 6.40039C10.4945 6.27734 10.2096 6.21582 9.86328 6.21582C9.57161 6.21582 9.30729 6.27507 9.07031 6.39355C8.83789 6.50749 8.65332 6.67155 8.5166 6.88574C8.37988 7.09538 8.31152 7.34603 8.31152 7.6377H6.65723C6.65723 7.10905 6.79622 6.63965 7.07422 6.22949C7.35221 5.81934 7.73047 5.49805 8.20898 5.26562C8.69206 5.02865 9.23438 4.91016 9.83594 4.91016C10.4785 4.91016 11.0391 5.01725 11.5176 5.23145C12.0007 5.44108 12.3766 5.75553 12.6455 6.1748C12.9144 6.59408 13.0488 7.11361 13.0488 7.7334C13.0488 8.01595 12.9827 8.30306 12.8506 8.59473C12.7184 8.88639 12.5225 9.15299 12.2627 9.39453C12.0029 9.63151 11.6794 9.8252 11.292 9.97559C10.9046 10.1214 10.4557 10.1943 9.94531 10.1943H8.70801V9.27832ZM8.70801 10.5635V9.66113H9.94531C10.5286 9.66113 11.0254 9.72949 11.4355 9.86621C11.8503 10.0029 12.1875 10.1921 12.4473 10.4336C12.707 10.6706 12.8962 10.9417 13.0146 11.2471C13.1377 11.5524 13.1992 11.876 13.1992 12.2178C13.1992 12.6826 13.1149 13.0973 12.9463 13.4619C12.7822 13.8219 12.5475 14.1273 12.2422 14.3779C11.9368 14.6286 11.5791 14.8177 11.1689 14.9453C10.7633 15.0729 10.3213 15.1367 9.84277 15.1367C9.41439 15.1367 9.00423 15.0775 8.6123 14.959C8.22038 14.8405 7.86947 14.665 7.55957 14.4326C7.24967 14.1956 7.00358 13.9017 6.82129 13.5508C6.64355 13.1953 6.55469 12.7852 6.55469 12.3203H8.20215C8.20215 12.6165 8.27051 12.8786 8.40723 13.1064C8.5485 13.3298 8.74447 13.5052 8.99512 13.6328C9.25033 13.7604 9.54199 13.8242 9.87012 13.8242C10.2165 13.8242 10.515 13.7627 10.7656 13.6396C11.0163 13.5166 11.2077 13.3343 11.3398 13.0928C11.4766 12.8512 11.5449 12.5596 11.5449 12.2178C11.5449 11.8304 11.4697 11.516 11.3193 11.2744C11.1689 11.0329 10.9548 10.8551 10.6768 10.7412C10.3988 10.6227 10.0706 10.5635 9.69238 10.5635H8.70801Z" fill="#1C1B1F"/>
</svg>
