<svg width="20" height="20" viewBox="0 0 20 20" fill="none" xmlns="http://www.w3.org/2000/svg">
<mask id="mask0_2181_1083" style="mask-type:alpha" maskUnits="userSpaceOnUse" x="0" y="0" width="20" height="20">
<rect width="20" height="20" fill="#D9D9D9"/>
</mask>
<g mask="url(#mask0_2181_1083)">
<path d="M6.66663 13.3333H16.6666V3.33329H15V9.16663L12.9166 7.91663L10.8333 9.16663V3.33329H6.66663V13.3333ZM6.66663 15C6.20829 15 5.81593 14.8368 5.48954 14.5104C5.16315 14.184 4.99996 13.7916 4.99996 13.3333V3.33329C4.99996 2.87496 5.16315 2.4826 5.48954 2.15621C5.81593 1.82982 6.20829 1.66663 6.66663 1.66663H16.6666C17.125 1.66663 17.5173 1.82982 17.8437 2.15621C18.1701 2.4826 18.3333 2.87496 18.3333 3.33329V13.3333C18.3333 13.7916 18.1701 14.184 17.8437 14.5104C17.5173 14.8368 17.125 15 16.6666 15H6.66663ZM3.33329 18.3333C2.87496 18.3333 2.4826 18.1701 2.15621 17.8437C1.82982 17.5173 1.66663 17.125 1.66663 16.6666V4.99996H3.33329V16.6666H15V18.3333H3.33329Z" fill="#717171"/>
</g>
</svg>
