<svg width="20" height="20" viewBox="0 0 20 20" fill="none" xmlns="http://www.w3.org/2000/svg">
<mask id="mask0_2181_1067" style="mask-type:alpha" maskUnits="userSpaceOnUse" x="0" y="0" width="20" height="20">
<rect width="20" height="20" fill="#D9D9D9"/>
</mask>
<g mask="url(#mask0_2181_1067)">
<path d="M12.7513 13.918L13.918 12.7513L10.8346 9.66797V5.83464H9.16797V10.3346L12.7513 13.918ZM10.0013 18.3346C8.84852 18.3346 7.76519 18.1159 6.7513 17.6784C5.73741 17.2409 4.85547 16.6471 4.10547 15.8971C3.35547 15.1471 2.76172 14.2652 2.32422 13.2513C1.88672 12.2374 1.66797 11.1541 1.66797 10.0013C1.66797 8.84852 1.88672 7.76519 2.32422 6.7513C2.76172 5.73741 3.35547 4.85547 4.10547 4.10547C4.85547 3.35547 5.73741 2.76172 6.7513 2.32422C7.76519 1.88672 8.84852 1.66797 10.0013 1.66797C11.1541 1.66797 12.2374 1.88672 13.2513 2.32422C14.2652 2.76172 15.1471 3.35547 15.8971 4.10547C16.6471 4.85547 17.2409 5.73741 17.6784 6.7513C18.1159 7.76519 18.3346 8.84852 18.3346 10.0013C18.3346 11.1541 18.1159 12.2374 17.6784 13.2513C17.2409 14.2652 16.6471 15.1471 15.8971 15.8971C15.1471 16.6471 14.2652 17.2409 13.2513 17.6784C12.2374 18.1159 11.1541 18.3346 10.0013 18.3346ZM10.0013 16.668C11.8485 16.668 13.4214 16.0187 14.7201 14.7201C16.0187 13.4214 16.668 11.8485 16.668 10.0013C16.668 8.15408 16.0187 6.58116 14.7201 5.28255C13.4214 3.98394 11.8485 3.33464 10.0013 3.33464C8.15408 3.33464 6.58116 3.98394 5.28255 5.28255C3.98394 6.58116 3.33464 8.15408 3.33464 10.0013C3.33464 11.8485 3.98394 13.4214 5.28255 14.7201C6.58116 16.0187 8.15408 16.668 10.0013 16.668Z" fill="#6818A5"/>
</g>
</svg>
